<?xml version="1.0" encoding="UTF-8" standalone="no"?>
<!-- Created with Inkscape (http://www.inkscape.org/) -->

<svg
   xmlns:dc="http://purl.org/dc/elements/1.1/"
   xmlns:cc="http://creativecommons.org/ns#"
   xmlns:rdf="http://www.w3.org/1999/02/22-rdf-syntax-ns#"
   xmlns:svg="http://www.w3.org/2000/svg"
   xmlns="http://www.w3.org/2000/svg"
   xmlns:sodipodi="http://sodipodi.sourceforge.net/DTD/sodipodi-0.dtd"
   xmlns:inkscape="http://www.inkscape.org/namespaces/inkscape"
   width="37.099998mm"
   height="9.3000002mm"
   viewBox="0 0 37.099998 9.3000004"
   version="1.1"
   id="svg8"
   inkscape:version="0.92.2 (unknown)"
   sodipodi:docname="simpleGrading.svg">
  <sodipodi:namedview
     id="base"
     pagecolor="#ffffff"
     bordercolor="#666666"
     borderopacity="1.0"
     inkscape:pageopacity="0.0"
     inkscape:pageshadow="2"
     inkscape:zoom="7.2407734"
     inkscape:cx="59.413375"
     inkscape:cy="34.910473"
     inkscape:document-units="mm"
     inkscape:current-layer="g1517"
     showgrid="true"
     inkscape:window-width="1920"
     inkscape:window-height="1056"
     inkscape:window-x="0"
     inkscape:window-y="24"
     inkscape:window-maximized="1"
     showguides="true">
    <inkscape:grid
       type="xygrid"
       id="grid815" />
  </sodipodi:namedview>
  <defs
     id="defs2" />
  <metadata
     id="metadata5">
    <rdf:RDF>
      <cc:Work
         rdf:about="">
        <dc:format>image/svg+xml</dc:format>
        <dc:type
           rdf:resource="http://purl.org/dc/dcmitype/StillImage" />
        <dc:title />
      </cc:Work>
    </rdf:RDF>
  </metadata>
  <g
     inkscape:label="Layer 1"
     inkscape:groupmode="layer"
     id="layer1"
     transform="translate(0,-287.7)">
    <path
       style="fill:none;stroke:#000000;stroke-width:0.1;stroke-linecap:round;stroke-linejoin:miter;stroke-miterlimit:4;stroke-dasharray:none;stroke-opacity:1"
       d="M 2.6458333,293.03125 H 34.395836"
       id="path821"
       inkscape:connector-curvature="0"
       sodipodi:nodetypes="cc" />
    <path
       style="fill:none;stroke:#000000;stroke-width:0.1;stroke-linecap:butt;stroke-linejoin:miter;stroke-opacity:1;stroke-miterlimit:4;stroke-dasharray:none"
       d="m 2.6458333,293.03125 v -1.38044"
       id="path823"
       inkscape:connector-curvature="0" />
    <path
       style="fill:none;stroke:#000000;stroke-width:0.1;stroke-linecap:butt;stroke-linejoin:miter;stroke-opacity:1;stroke-miterlimit:4;stroke-dasharray:none"
       d="m 4.0262681,293.03125 v -1.38044"
       id="path829"
       inkscape:connector-curvature="0" />
    <path
       style="fill:none;stroke:#000000;stroke-width:0.1;stroke-linecap:butt;stroke-linejoin:miter;stroke-opacity:1;stroke-miterlimit:4;stroke-dasharray:none"
       d="m 5.6827899,293.03125 v -1.38044"
       id="path831"
       inkscape:connector-curvature="0" />
    <path
       style="fill:none;stroke:#000000;stroke-width:0.1;stroke-linecap:butt;stroke-linejoin:miter;stroke-opacity:1;stroke-miterlimit:4;stroke-dasharray:none"
       d="m 7.6153983,293.03125 v -1.38044"
       id="path833"
       inkscape:connector-curvature="0" />
    <path
       style="fill:none;stroke:#000000;stroke-width:0.1;stroke-linecap:butt;stroke-linejoin:miter;stroke-opacity:1;stroke-miterlimit:4;stroke-dasharray:none"
       d="m 9.8240943,293.03125 v -1.38044"
       id="path835"
       inkscape:connector-curvature="0" />
    <path
       style="fill:none;stroke:#000000;stroke-width:0.1;stroke-linecap:butt;stroke-linejoin:miter;stroke-opacity:1;stroke-miterlimit:4;stroke-dasharray:none"
       d="m 12.308877,291.65081 v 1.38044"
       id="path837"
       inkscape:connector-curvature="0" />
    <path
       style="fill:none;stroke:#000000;stroke-width:0.1;stroke-linecap:butt;stroke-linejoin:miter;stroke-opacity:1;stroke-miterlimit:4;stroke-dasharray:none"
       d="m 34.395833,293.03125 v -1.38044"
       id="path839"
       inkscape:connector-curvature="0" />
    <path
       style="fill:none;stroke:#000000;stroke-width:0.1;stroke-linecap:butt;stroke-linejoin:miter;stroke-opacity:1;stroke-miterlimit:4;stroke-dasharray:none"
       d="m 30.427083,293.03125 v -1.38044"
       id="path841"
       inkscape:connector-curvature="0" />
    <g
       transform="matrix(1.6001262,0,0,1.6001262,-3.1196982,255.37432)"
       id="g843">
      <g
         style="font-style:normal;font-variant:normal;font-weight:normal;font-stretch:normal;letter-spacing:normal;word-spacing:normal;text-anchor:start;fill:none;fill-opacity:1;fill-rule:evenodd;stroke:#000000;stroke-linecap:butt;stroke-linejoin:miter;stroke-miterlimit:10.43299961;stroke-dasharray:none;stroke-dashoffset:0;stroke-opacity:1"
         id="content"
         transform="matrix(0.01328571,0,0,-0.01328571,-2.3250001,27.824998)"
         xml:space="preserve"
         stroke-miterlimit="10.433"
         font-style="normal"
         font-variant="normal"
         font-weight="normal"
         font-stretch="normal"
         font-size-adjust="none"
         letter-spacing="normal"
         word-spacing="normal"><path
           style="fill:#000000;stroke-width:0"
           inkscape:connector-curvature="0"
           d="m 469.15,427.77 -0.58,-0.15 -0.57,-0.19 -0.56,-0.21 -0.55,-0.23 -0.54,-0.27 -0.53,-0.28 -0.52,-0.31 -0.5,-0.33 -0.49,-0.35 -0.48,-0.38 -0.46,-0.39 -0.45,-0.41 -0.44,-0.43 -0.41,-0.44 -0.4,-0.46 -0.38,-0.47 -0.36,-0.49 -0.35,-0.5 -0.32,-0.51 -0.31,-0.52 -0.28,-0.53 -0.27,-0.53 -0.24,-0.55 -0.21,-0.55 -0.2,-0.56 -0.17,-0.56 -0.15,-0.56 -0.12,-0.57 -0.09,-0.57 -0.07,-0.57 -0.04,-0.56 -0.02,-0.57 c 0,-4.78 3.19,-8.37 7.87,-8.37 v 1.1 c -2.74,0 -4.78,2.09 -4.78,5.88 0,3.14 1.84,12.5 8.57,14.29 v 0 c 1.24,-2.29 2.74,-4.98 2.74,-8.56 0,-3.29 -1.9,-11.61 -6.53,-11.61 v -1.1 c 5.83,0 9.97,7.82 9.97,14.7 0,4.53 -2,7.02 -3.69,9.26 -1.79,2.25 -4.73,5.98 -4.73,8.17 0,1.1 0.99,2.29 2.74,2.29 1.49,0 2.49,-0.64 3.54,-1.34 0.99,-0.6 1.99,-1.25 2.73,-1.25 1.25,0 2,1.2 2,2 0,1.09 -0.8,1.24 -2.59,1.64 -2.59,0.55 -3.29,0.55 -4.09,0.55 -3.88,0 -5.68,-2.15 -5.68,-5.13 0,-2.69 1.45,-5.48 2.99,-8.52 z"
           id="path838" /><path
           style="fill:#000000;stroke-width:0"
           inkscape:connector-curvature="0"
           d="m 495.99,410.12 v 0.71 l -0.02,0.68 -0.03,0.66 -0.04,0.64 -0.06,0.62 -0.08,0.59 -0.09,0.58 -0.11,0.56 -0.12,0.55 -0.15,0.53 -0.17,0.51 -0.19,0.5 -0.21,0.49 -0.24,0.48 -0.26,0.47 -0.14,0.24 -0.15,0.23 c -1.07,1.6 -3.24,2.99 -6.03,2.99 v -0.97 c 1.89,0 3.7,-1.15 4.33,-3.18 0.56,-1.88 0.59,-4.39 0.59,-7.42 0,-2.58 0,-5.17 -0.45,-7.36 -0.7,-3.17 -3.07,-3.94 -4.47,-3.94 v 0 c -1.6,0 -3.73,0.94 -4.43,3.8 -0.49,2.06 -0.49,4.92 -0.49,7.5 0,2.54 0,5.19 0.53,7.11 0.73,2.76 2.96,3.49 4.39,3.49 v 0.97 c -8.09,0 -8.09,-9.52 -8.09,-12.03 0,-2.51 0,-11.82 8.09,-11.82 8.09,0 8.09,9.31 8.09,11.82 z"
           id="path840" /></g>    </g>
    <g
       id="g887"
       transform="matrix(1.6697173,0,0,1.6697173,-1.7568916,253.82129)">
      <g
         word-spacing="normal"
         letter-spacing="normal"
         font-size-adjust="none"
         font-stretch="normal"
         font-weight="normal"
         font-variant="normal"
         font-style="normal"
         stroke-miterlimit="10.433"
         xml:space="preserve"
         transform="matrix(0.01328571,0,0,-0.01328571,-2.3250001,27.824998)"
         id="g885"
         style="font-style:normal;font-variant:normal;font-weight:normal;font-stretch:normal;letter-spacing:normal;word-spacing:normal;text-anchor:start;fill:none;fill-opacity:1;fill-rule:evenodd;stroke:#000000;stroke-linecap:butt;stroke-linejoin:miter;stroke-miterlimit:10.43299961;stroke-dasharray:none;stroke-dashoffset:0;stroke-opacity:1"><path
           id="path881"
           d="m 469.15,427.77 -0.58,-0.15 -0.57,-0.19 -0.56,-0.21 -0.55,-0.23 -0.54,-0.27 -0.53,-0.28 -0.52,-0.31 -0.5,-0.33 -0.49,-0.35 -0.48,-0.38 -0.46,-0.39 -0.45,-0.41 -0.44,-0.43 -0.41,-0.44 -0.4,-0.46 -0.38,-0.47 -0.36,-0.49 -0.35,-0.5 -0.32,-0.51 -0.31,-0.52 -0.28,-0.53 -0.27,-0.53 -0.24,-0.55 -0.21,-0.55 -0.2,-0.56 -0.17,-0.56 -0.15,-0.56 -0.12,-0.57 -0.09,-0.57 -0.07,-0.57 -0.04,-0.56 -0.02,-0.57 c 0,-4.78 3.19,-8.37 7.87,-8.37 v 1.1 c -2.74,0 -4.78,2.09 -4.78,5.88 0,3.14 1.84,12.5 8.57,14.29 v 0 c 1.24,-2.29 2.74,-4.98 2.74,-8.56 0,-3.29 -1.9,-11.61 -6.53,-11.61 v -1.1 c 5.83,0 9.97,7.82 9.97,14.7 0,4.53 -2,7.02 -3.69,9.26 -1.79,2.25 -4.73,5.98 -4.73,8.17 0,1.1 0.99,2.29 2.74,2.29 1.49,0 2.49,-0.64 3.54,-1.34 0.99,-0.6 1.99,-1.25 2.73,-1.25 1.25,0 2,1.2 2,2 0,1.09 -0.8,1.24 -2.59,1.64 -2.59,0.55 -3.29,0.55 -4.09,0.55 -3.88,0 -5.68,-2.15 -5.68,-5.13 0,-2.69 1.45,-5.48 2.99,-8.52 z"
           inkscape:connector-curvature="0"
           style="fill:#000000;stroke-width:0" /><path
           id="path883"
           d="m 489.68,421.18 v 0.04 0.04 0.04 0.04 0.04 0.04 0.03 0.04 l -0.01,0.03 v 0.03 0.04 0.03 l -0.01,0.02 v 0.03 0.03 l -0.01,0.03 v 0.02 0.02 l -0.02,0.05 -0.01,0.04 -0.01,0.04 -0.02,0.03 -0.02,0.03 -0.02,0.03 -0.03,0.03 -0.02,0.02 -0.03,0.02 -0.04,0.02 -0.03,0.01 -0.04,0.01 -0.05,0.02 h -0.05 l -0.02,0.01 h -0.03 l -0.03,0.01 h -0.02 -0.03 -0.03 -0.04 l -0.03,0.01 h -0.03 -0.04 -0.03 -0.04 -0.04 -0.04 -0.04 -0.04 -0.05 -0.04 c -2.24,-2.19 -5.41,-2.23 -6.84,-2.23 v -1.25 c 0.84,0 3.14,0 5.06,0.97 v -17.78 c 0,-1.15 0,-1.61 -3.49,-1.61 h -1.33 V 399 h 12.45 v 1.25 h -1.32 c -3.49,0 -3.49,0.46 -3.49,1.61 z"
           inkscape:connector-curvature="0"
           style="fill:#000000;stroke-width:0" /></g>    </g>
    <g
       id="g939"
       transform="matrix(1.6697173,0,0,1.6697173,-0.03189157,253.82129)">
      <g
         id="g937"
         transform="matrix(0.01328571,0,0,-0.01328571,-2.3250001,27.824998)"
         xml:space="preserve"
         stroke-miterlimit="10.433"
         font-style="normal"
         font-variant="normal"
         font-weight="normal"
         font-stretch="normal"
         font-size-adjust="none"
         letter-spacing="normal"
         word-spacing="normal"
         style="font-style:normal;font-variant:normal;font-weight:normal;font-stretch:normal;letter-spacing:normal;word-spacing:normal;text-anchor:start;fill:none;fill-opacity:1;fill-rule:evenodd;stroke:#000000;stroke-linecap:butt;stroke-linejoin:miter;stroke-miterlimit:10.43299961;stroke-dasharray:none;stroke-dashoffset:0;stroke-opacity:1"><path
           d="m 469.15,427.77 -0.58,-0.15 -0.57,-0.19 -0.56,-0.21 -0.55,-0.23 -0.54,-0.27 -0.53,-0.28 -0.52,-0.31 -0.5,-0.33 -0.49,-0.35 -0.48,-0.38 -0.46,-0.39 -0.45,-0.41 -0.44,-0.43 -0.41,-0.44 -0.4,-0.46 -0.38,-0.47 -0.36,-0.49 -0.35,-0.5 -0.32,-0.51 -0.31,-0.52 -0.28,-0.53 -0.27,-0.53 -0.24,-0.55 -0.21,-0.55 -0.2,-0.56 -0.17,-0.56 -0.15,-0.56 -0.12,-0.57 -0.09,-0.57 -0.07,-0.57 -0.04,-0.56 -0.02,-0.57 c 0,-4.78 3.19,-8.37 7.87,-8.37 v 1.1 c -2.74,0 -4.78,2.09 -4.78,5.88 0,3.14 1.84,12.5 8.57,14.29 v 0 c 1.24,-2.29 2.74,-4.98 2.74,-8.56 0,-3.29 -1.9,-11.61 -6.53,-11.61 v -1.1 c 5.83,0 9.97,7.82 9.97,14.7 0,4.53 -2,7.02 -3.69,9.26 -1.79,2.25 -4.73,5.98 -4.73,8.17 0,1.1 0.99,2.29 2.74,2.29 1.49,0 2.49,-0.64 3.54,-1.34 0.99,-0.6 1.99,-1.25 2.73,-1.25 1.25,0 2,1.2 2,2 0,1.09 -0.8,1.24 -2.59,1.64 -2.59,0.55 -3.29,0.55 -4.09,0.55 -3.88,0 -5.68,-2.15 -5.68,-5.13 0,-2.69 1.45,-5.48 2.99,-8.52 z"
           id="path933"
           inkscape:connector-curvature="0"
           style="fill:#000000;stroke-width:0" /><path
           d="m 495.61,405.35 h -1.19 c -0.1,-0.77 -0.45,-2.83 -0.9,-3.18 -0.28,-0.21 -2.97,-0.21 -3.45,-0.21 h -6.42 c 3.66,3.25 4.88,4.22 6.97,5.86 2.58,2.06 4.99,4.22 4.99,7.54 0,4.21 -3.7,6.79 -8.16,6.79 -4.33,0 -7.25,-3.03 -7.25,-6.24 0,-1.78 1.5,-1.95 1.84,-1.95 0.84,0 1.85,0.59 1.85,1.85 0,0.62 -0.24,1.85 -2.05,1.85 1.08,2.47 3.45,3.24 5.09,3.24 3.48,0 5.3,-2.72 5.3,-5.54 0,-3.04 -2.16,-5.45 -3.28,-6.7 l -8.4,-8.3 c -0.35,-0.31 -0.35,-0.38 -0.35,-1.36 h 14.36 z"
           id="path935"
           inkscape:connector-curvature="0"
           style="fill:#000000;stroke-width:0" /></g>    </g>
    <g
       id="g999"
       transform="matrix(1.6693248,0,0,1.6697173,2.0495846,253.80576)">
      <g
         word-spacing="normal"
         letter-spacing="normal"
         font-size-adjust="none"
         font-stretch="normal"
         font-weight="normal"
         font-variant="normal"
         font-style="normal"
         stroke-miterlimit="10.433"
         xml:space="preserve"
         transform="matrix(0.01328571,0,0,-0.01328571,-2.3250001,27.824998)"
         id="g997"
         style="font-style:normal;font-variant:normal;font-weight:normal;font-stretch:normal;letter-spacing:normal;word-spacing:normal;text-anchor:start;fill:none;fill-opacity:1;fill-rule:evenodd;stroke:#000000;stroke-linecap:butt;stroke-linejoin:miter;stroke-miterlimit:10.43299961;stroke-dasharray:none;stroke-dashoffset:0;stroke-opacity:1"><path
           id="path993"
           d="m 469.15,427.77 -0.58,-0.15 -0.57,-0.19 -0.56,-0.21 -0.55,-0.23 -0.54,-0.27 -0.53,-0.28 -0.52,-0.31 -0.5,-0.33 -0.49,-0.35 -0.48,-0.38 -0.46,-0.39 -0.45,-0.41 -0.44,-0.43 -0.41,-0.44 -0.4,-0.46 -0.38,-0.47 -0.36,-0.49 -0.35,-0.5 -0.32,-0.51 -0.31,-0.52 -0.28,-0.53 -0.27,-0.53 -0.24,-0.55 -0.21,-0.55 -0.2,-0.56 -0.17,-0.56 -0.15,-0.56 -0.12,-0.57 -0.09,-0.57 -0.07,-0.57 -0.04,-0.56 -0.02,-0.57 c 0,-4.78 3.19,-8.37 7.87,-8.37 v 1.1 c -2.74,0 -4.78,2.09 -4.78,5.88 0,3.14 1.84,12.5 8.57,14.29 v 0 c 1.24,-2.29 2.74,-4.98 2.74,-8.56 0,-3.29 -1.9,-11.61 -6.53,-11.61 v -1.1 c 5.83,0 9.97,7.82 9.97,14.7 0,4.53 -2,7.02 -3.69,9.26 -1.79,2.25 -4.73,5.98 -4.73,8.17 0,1.1 0.99,2.29 2.74,2.29 1.49,0 2.49,-0.64 3.54,-1.34 0.99,-0.6 1.99,-1.25 2.73,-1.25 1.25,0 2,1.2 2,2 0,1.09 -0.8,1.24 -2.59,1.64 -2.59,0.55 -3.29,0.55 -4.09,0.55 -3.88,0 -5.68,-2.15 -5.68,-5.13 0,-2.69 1.45,-5.48 2.99,-8.52 z"
           inkscape:connector-curvature="0"
           style="fill:#000000;stroke-width:0" /><path
           id="path995"
           d="m 487.52,410.64 h 0.25 l 0.25,-0.02 0.24,-0.02 0.24,-0.04 0.23,-0.05 0.23,-0.06 0.22,-0.07 0.22,-0.09 0.21,-0.09 0.2,-0.11 0.19,-0.11 0.19,-0.13 0.18,-0.13 0.18,-0.15 0.17,-0.16 0.15,-0.17 0.16,-0.18 0.14,-0.2 0.13,-0.2 0.13,-0.21 0.12,-0.23 0.11,-0.23 0.09,-0.25 0.09,-0.26 0.08,-0.27 0.07,-0.28 0.06,-0.29 0.05,-0.3 0.04,-0.31 0.03,-0.32 0.02,-0.33 v -0.35 c 0,-4.32 -2.51,-5.61 -4.53,-5.61 -1.39,0 -4.46,0.38 -5.93,2.44 1.64,0.07 2.02,1.22 2.02,1.95 0,1.12 -0.83,1.92 -1.91,1.92 -0.98,0 -1.96,-0.59 -1.96,-2.02 0,-3.28 3.63,-5.41 7.85,-5.41 4.84,0 8.19,3.25 8.19,6.73 0,2.72 -2.23,5.44 -6.06,6.24 3.66,1.33 4.98,3.94 4.98,6.07 0,2.76 -3.17,4.81 -7.04,4.81 -3.87,0 -6.84,-1.88 -6.84,-4.67 0,-1.18 0.77,-1.85 1.82,-1.85 1.08,0 1.77,0.8 1.77,1.78 0,1.01 -0.69,1.75 -1.77,1.81 1.22,1.54 3.62,1.92 4.92,1.92 1.56,0 3.76,-0.76 3.76,-3.8 0,-1.46 -0.49,-3.07 -1.39,-4.15 -1.16,-1.32 -2.13,-1.39 -3.87,-1.5 -0.88,-0.07 -0.95,-0.07 -1.12,-0.1 -0.07,0 -0.35,-0.07 -0.35,-0.46 0,-0.49 0.31,-0.49 0.91,-0.49 z"
           inkscape:connector-curvature="0"
           style="fill:#000000;stroke-width:0" /></g>    </g>
    <g
       id="g1149"
       transform="matrix(1.6697173,0,0,1.6697173,24.912511,253.82129)">
      <g
         word-spacing="normal"
         letter-spacing="normal"
         font-size-adjust="none"
         font-stretch="normal"
         font-weight="normal"
         font-variant="normal"
         font-style="normal"
         stroke-miterlimit="10.433"
         xml:space="preserve"
         transform="matrix(0.01328571,0,0,-0.01328571,-2.3250001,27.824998)"
         id="g1147"
         style="font-style:normal;font-variant:normal;font-weight:normal;font-stretch:normal;letter-spacing:normal;word-spacing:normal;text-anchor:start;fill:none;fill-opacity:1;fill-rule:evenodd;stroke:#000000;stroke-linecap:butt;stroke-linejoin:miter;stroke-miterlimit:10.43299961;stroke-dasharray:none;stroke-dashoffset:0;stroke-opacity:1"><path
           id="path1139"
           d="m 469.15,427.77 -0.58,-0.15 -0.57,-0.19 -0.56,-0.21 -0.55,-0.23 -0.54,-0.27 -0.53,-0.28 -0.52,-0.31 -0.5,-0.33 -0.49,-0.35 -0.48,-0.38 -0.46,-0.39 -0.45,-0.41 -0.44,-0.43 -0.41,-0.44 -0.4,-0.46 -0.38,-0.47 -0.36,-0.49 -0.35,-0.5 -0.32,-0.51 -0.31,-0.52 -0.28,-0.53 -0.27,-0.53 -0.24,-0.55 -0.21,-0.55 -0.2,-0.56 -0.17,-0.56 -0.15,-0.56 -0.12,-0.57 -0.09,-0.57 -0.07,-0.57 -0.04,-0.56 -0.02,-0.57 c 0,-4.78 3.19,-8.37 7.87,-8.37 v 1.1 c -2.74,0 -4.78,2.09 -4.78,5.88 0,3.14 1.84,12.5 8.57,14.29 v 0 c 1.24,-2.29 2.74,-4.98 2.74,-8.56 0,-3.29 -1.9,-11.61 -6.53,-11.61 v -1.1 c 5.83,0 9.97,7.82 9.97,14.7 0,4.53 -2,7.02 -3.69,9.26 -1.79,2.25 -4.73,5.98 -4.73,8.17 0,1.1 0.99,2.29 2.74,2.29 1.49,0 2.49,-0.64 3.54,-1.34 0.99,-0.6 1.99,-1.25 2.73,-1.25 1.25,0 2,1.2 2,2 0,1.09 -0.8,1.24 -2.59,1.64 -2.59,0.55 -3.29,0.55 -4.09,0.55 -3.88,0 -5.68,-2.15 -5.68,-5.13 0,-2.69 1.45,-5.48 2.99,-8.52 z"
           inkscape:connector-curvature="0"
           style="fill:#000000;stroke-width:0" /><path
           id="path1141"
           d="m 507.08,419.02 0.07,0.24 0.08,0.24 0.04,0.12 0.04,0.12 0.05,0.11 0.05,0.11 0.06,0.11 0.06,0.11 0.07,0.1 0.07,0.1 0.08,0.1 0.08,0.1 0.09,0.09 0.09,0.09 0.11,0.08 0.11,0.08 0.12,0.08 0.12,0.07 0.14,0.07 0.14,0.07 0.16,0.06 0.16,0.05 0.18,0.05 0.18,0.04 0.2,0.04 0.2,0.03 0.22,0.03 0.11,0.01 0.12,0.01 0.12,0.01 0.12,0.01 0.13,0.01 h 0.13 c 0.17,0 0.69,0.03 0.69,0.77 0,0.21 -0.17,0.49 -0.52,0.49 h -7.32 c -0.18,0 -0.7,0 -0.7,-0.77 0,-0.46 0.46,-0.49 0.77,-0.49 1.64,-0.03 2.23,-0.56 2.23,-1.43 0,-0.28 -0.04,-0.45 -0.14,-0.84 l -3.8,-15.2 -8.86,18.13 c -0.27,0.6 -0.34,0.6 -1.18,0.6 h -4.78 c -0.66,0 -1.12,0 -1.12,-0.77 0,-0.49 0.42,-0.49 1.16,-0.49 0.73,0 1.49,-0.03 2.23,-0.17 l -4.67,-18.66 c -0.32,-1.32 -0.91,-2.37 -3.63,-2.48 -0.25,0 -0.73,-0.03 -0.73,-0.73 0,-0.38 0.27,-0.52 0.52,-0.52 h 7.32 c 0.35,0 0.7,0.18 0.7,0.73 0,0.49 -0.42,0.52 -0.8,0.52 -2.2,0.07 -2.2,0.98 -2.2,1.47 0,0.14 0,0.32 0.14,0.87 l 4.46,17.86 10.18,-20.86 c 0.28,-0.55 0.42,-0.59 0.77,-0.59 0.56,0 0.56,0.11 0.73,0.73 z"
           inkscape:connector-curvature="0"
           style="fill:#000000;stroke-width:0" /><path
           id="path1143"
           d="m 538.94,406.88 h 0.05 0.06 0.05 0.06 0.12 l 0.06,0.01 h 0.05 l 0.06,0.01 h 0.06 l 0.06,0.01 0.06,0.01 0.05,0.02 0.06,0.01 0.06,0.02 0.05,0.01 0.05,0.02 0.05,0.03 0.05,0.02 0.04,0.03 0.04,0.04 0.05,0.03 0.03,0.04 0.02,0.02 0.02,0.02 0.01,0.03 0.02,0.02 0.01,0.02 0.02,0.03 0.01,0.03 0.01,0.02 0.01,0.03 0.01,0.03 0.01,0.03 v 0.03 l 0.01,0.04 0.01,0.03 v 0.04 0.03 l 0.01,0.04 v 0.04 c 0,0.87 -0.81,0.87 -1.4,0.87 h -20.78 c -0.56,0 -1.39,0 -1.39,-0.84 0,-0.87 0.8,-0.87 1.39,-0.87 z"
           inkscape:connector-curvature="0"
           style="fill:#000000;stroke-width:0" /><path
           id="path1145"
           d="m 555.68,421.18 v 0.04 0.04 0.04 0.04 0.04 0.04 0.03 0.04 l -0.01,0.03 v 0.03 0.04 0.03 l -0.01,0.02 v 0.03 0.03 l -0.01,0.03 v 0.02 0.02 l -0.02,0.05 -0.01,0.04 -0.01,0.04 -0.02,0.03 -0.02,0.03 -0.02,0.03 -0.03,0.03 -0.02,0.02 -0.03,0.02 -0.04,0.02 -0.03,0.01 -0.04,0.01 -0.05,0.02 h -0.05 l -0.02,0.01 h -0.03 l -0.03,0.01 h -0.02 -0.03 -0.03 -0.04 l -0.03,0.01 h -0.03 -0.04 -0.03 -0.04 -0.04 -0.04 -0.04 -0.04 -0.05 -0.04 c -2.24,-2.19 -5.41,-2.23 -6.84,-2.23 v -1.25 c 0.84,0 3.14,0 5.05,0.97 v -17.78 c 0,-1.15 0,-1.61 -3.48,-1.61 h -1.33 V 399 h 12.45 v 1.25 h -1.32 c -3.49,0 -3.49,0.46 -3.49,1.61 z"
           inkscape:connector-curvature="0"
           style="fill:#000000;stroke-width:0" /></g>    </g>
    <g
       id="g1229"
       transform="matrix(1.6697173,0,0,1.6697173,25.740617,255.2426)">
      <g
         id="g1227"
         transform="matrix(0.01328571,0,0,-0.01328571,-2.3250001,27.824998)"
         xml:space="preserve"
         stroke-miterlimit="10.433"
         font-style="normal"
         font-variant="normal"
         font-weight="normal"
         font-stretch="normal"
         font-size-adjust="none"
         letter-spacing="normal"
         word-spacing="normal"
         style="font-style:normal;font-variant:normal;font-weight:normal;font-stretch:normal;letter-spacing:normal;word-spacing:normal;text-anchor:start;fill:none;fill-opacity:1;fill-rule:evenodd;stroke:#000000;stroke-linecap:butt;stroke-linejoin:miter;stroke-miterlimit:10.43299961;stroke-dasharray:none;stroke-dashoffset:0;stroke-opacity:1"><path
           d="m 469.15,427.77 -0.58,-0.15 -0.57,-0.19 -0.56,-0.21 -0.55,-0.23 -0.54,-0.27 -0.53,-0.28 -0.52,-0.31 -0.5,-0.33 -0.49,-0.35 -0.48,-0.38 -0.46,-0.39 -0.45,-0.41 -0.44,-0.43 -0.41,-0.44 -0.4,-0.46 -0.38,-0.47 -0.36,-0.49 -0.35,-0.5 -0.32,-0.51 -0.31,-0.52 -0.28,-0.53 -0.27,-0.53 -0.24,-0.55 -0.21,-0.55 -0.2,-0.56 -0.17,-0.56 -0.15,-0.56 -0.12,-0.57 -0.09,-0.57 -0.07,-0.57 -0.04,-0.56 -0.02,-0.57 c 0,-4.78 3.19,-8.37 7.87,-8.37 v 1.1 c -2.74,0 -4.78,2.09 -4.78,5.88 0,3.14 1.84,12.5 8.57,14.29 v 0 c 1.24,-2.29 2.74,-4.98 2.74,-8.56 0,-3.29 -1.9,-11.61 -6.53,-11.61 v -1.1 c 5.83,0 9.97,7.82 9.97,14.7 0,4.53 -2,7.02 -3.69,9.26 -1.79,2.25 -4.73,5.98 -4.73,8.17 0,1.1 0.99,2.29 2.74,2.29 1.49,0 2.49,-0.64 3.54,-1.34 0.99,-0.6 1.99,-1.25 2.73,-1.25 1.25,0 2,1.2 2,2 0,1.09 -0.8,1.24 -2.59,1.64 -2.59,0.55 -3.29,0.55 -4.09,0.55 -3.88,0 -5.68,-2.15 -5.68,-5.13 0,-2.69 1.45,-5.48 2.99,-8.52 z"
           id="path1223"
           inkscape:connector-curvature="0"
           style="fill:#000000;stroke-width:0" /><path
           d="m 485.81,406.95 h 0.1 0.11 0.11 0.13 l 0.13,0.01 h 0.14 0.15 l 0.16,0.01 0.16,0.01 0.17,0.01 0.17,0.01 0.18,0.01 0.18,0.01 0.19,0.01 0.39,0.04 0.39,0.04 0.41,0.05 0.41,0.06 0.4,0.07 0.4,0.08 0.2,0.04 0.19,0.05 0.2,0.05 0.18,0.06 0.19,0.05 0.18,0.06 c 2.57,0.91 3.06,2.58 3.06,3.63 0,1.92 -1.92,3.07 -4.32,3.07 v -0.98 c 1.53,0 2.82,-0.77 2.82,-2.09 0,-3.38 -5.89,-3.38 -7.39,-3.38 h -1.71 c 1.43,5.05 5.3,5.47 6.28,5.47 v 0.98 c -4.19,0 -9.83,-3.21 -9.83,-9.17 0,-3.53 2.19,-6.56 6.27,-6.56 5.89,0 8.65,3.45 8.65,3.94 0,0.21 -0.31,0.59 -0.59,0.59 -0.21,0 -0.28,-0.07 -0.56,-0.34 -2.72,-3.21 -6.8,-3.21 -7.43,-3.21 -2.09,0 -3.48,1.39 -3.48,4.22 0,0.49 0,1.18 0.41,3.1 z"
           id="path1225"
           inkscape:connector-curvature="0"
           style="fill:#000000;stroke-width:0" /></g>    </g>
    <g
       id="g1317"
       transform="matrix(1.6697173,0,0,1.6697173,-3.3693819,255.24252)">
      <g
         word-spacing="normal"
         letter-spacing="normal"
         font-size-adjust="none"
         font-stretch="normal"
         font-weight="normal"
         font-variant="normal"
         font-style="normal"
         stroke-miterlimit="10.433"
         xml:space="preserve"
         transform="matrix(0.01328571,0,0,-0.01328571,-2.3250001,27.824998)"
         id="g1315"
         style="font-style:normal;font-variant:normal;font-weight:normal;font-stretch:normal;letter-spacing:normal;word-spacing:normal;text-anchor:start;fill:none;fill-opacity:1;fill-rule:evenodd;stroke:#000000;stroke-linecap:butt;stroke-linejoin:miter;stroke-miterlimit:10.43299961;stroke-dasharray:none;stroke-dashoffset:0;stroke-opacity:1"><path
           id="path1311"
           d="m 469.15,427.77 -0.58,-0.15 -0.57,-0.19 -0.56,-0.21 -0.55,-0.23 -0.54,-0.27 -0.53,-0.28 -0.52,-0.31 -0.5,-0.33 -0.49,-0.35 -0.48,-0.38 -0.46,-0.39 -0.45,-0.41 -0.44,-0.43 -0.41,-0.44 -0.4,-0.46 -0.38,-0.47 -0.36,-0.49 -0.35,-0.5 -0.32,-0.51 -0.31,-0.52 -0.28,-0.53 -0.27,-0.53 -0.24,-0.55 -0.21,-0.55 -0.2,-0.56 -0.17,-0.56 -0.15,-0.56 -0.12,-0.57 -0.09,-0.57 -0.07,-0.57 -0.04,-0.56 -0.02,-0.57 c 0,-4.78 3.19,-8.37 7.87,-8.37 v 1.1 c -2.74,0 -4.78,2.09 -4.78,5.88 0,3.14 1.84,12.5 8.57,14.29 v 0 c 1.24,-2.29 2.74,-4.98 2.74,-8.56 0,-3.29 -1.9,-11.61 -6.53,-11.61 v -1.1 c 5.83,0 9.97,7.82 9.97,14.7 0,4.53 -2,7.02 -3.69,9.26 -1.79,2.25 -4.73,5.98 -4.73,8.17 0,1.1 0.99,2.29 2.74,2.29 1.49,0 2.49,-0.64 3.54,-1.34 0.99,-0.6 1.99,-1.25 2.73,-1.25 1.25,0 2,1.2 2,2 0,1.09 -0.8,1.24 -2.59,1.64 -2.59,0.55 -3.29,0.55 -4.09,0.55 -3.88,0 -5.68,-2.15 -5.68,-5.13 0,-2.69 1.45,-5.48 2.99,-8.52 z"
           inkscape:connector-curvature="0"
           style="fill:#000000;stroke-width:0" /><path
           id="path1313"
           d="m 493.03,412.11 -0.09,-0.02 -0.08,-0.03 -0.08,-0.02 -0.08,-0.03 -0.07,-0.03 -0.07,-0.04 -0.08,-0.04 -0.06,-0.04 -0.07,-0.04 -0.06,-0.04 -0.07,-0.05 -0.05,-0.05 -0.06,-0.05 -0.05,-0.05 -0.06,-0.05 -0.04,-0.06 -0.05,-0.05 -0.04,-0.06 -0.04,-0.06 -0.04,-0.06 -0.04,-0.06 -0.03,-0.06 -0.03,-0.06 -0.03,-0.07 -0.02,-0.06 -0.02,-0.07 -0.02,-0.06 -0.01,-0.07 -0.01,-0.06 -0.01,-0.07 -0.01,-0.06 v -0.07 c 0,-0.8 0.7,-1.11 1.15,-1.11 0.35,0 1.68,0.21 1.68,1.98 0,2.27 -2.51,3.04 -4.64,3.04 -5.44,0 -6.41,-4.01 -6.41,-5.09 0,-1.29 0.73,-2.13 1.21,-2.55 0.91,-0.7 1.54,-0.84 3.95,-1.26 0.73,-0.13 2.96,-0.55 2.96,-2.3 0,-0.59 -0.39,-1.91 -1.85,-2.79 -1.36,-0.76 -3.07,-0.76 -3.49,-0.76 -1.39,0 -3.38,0.31 -4.18,1.46 1.15,0.14 1.92,1.01 1.92,1.99 0,0.87 -0.63,1.29 -1.36,1.29 -1.01,0 -2.02,-0.8 -2.02,-2.33 0,-2.1 2.23,-3.39 5.61,-3.39 6.41,0 7.6,4.39 7.6,5.76 0,3.2 -3.52,3.83 -4.81,4.07 -0.31,0.07 -1.18,0.22 -1.4,0.28 -1.28,0.25 -1.91,0.98 -1.91,1.75 0,0.8 0.63,1.74 1.39,2.23 0.94,0.59 2.16,0.66 2.75,0.66 0.74,0 2.55,-0.1 3.32,-1.29 z"
           inkscape:connector-curvature="0"
           style="fill:#000000;stroke-width:0" /></g>    </g>
    <g
       id="g1413"
       transform="matrix(1.7561146,0,0,1.7561146,3.9710383,251.87528)">
      <g
         id="g1411"
         transform="matrix(0.01328571,0,0,-0.01328571,-2.3250001,27.824998)"
         xml:space="preserve"
         stroke-miterlimit="10.433"
         font-style="normal"
         font-variant="normal"
         font-weight="normal"
         font-stretch="normal"
         font-size-adjust="none"
         letter-spacing="normal"
         word-spacing="normal"
         style="font-style:normal;font-variant:normal;font-weight:normal;font-stretch:normal;letter-spacing:normal;word-spacing:normal;text-anchor:start;fill:none;fill-opacity:1;fill-rule:evenodd;stroke:#000000;stroke-linecap:butt;stroke-linejoin:miter;stroke-miterlimit:10.43299961;stroke-dasharray:none;stroke-dashoffset:0;stroke-opacity:1"><path
           d="m 469.15,427.77 -0.58,-0.15 -0.57,-0.19 -0.56,-0.21 -0.55,-0.23 -0.54,-0.27 -0.53,-0.28 -0.52,-0.31 -0.5,-0.33 -0.49,-0.35 -0.48,-0.38 -0.46,-0.39 -0.45,-0.41 -0.44,-0.43 -0.41,-0.44 -0.4,-0.46 -0.38,-0.47 -0.36,-0.49 -0.35,-0.5 -0.32,-0.51 -0.31,-0.52 -0.28,-0.53 -0.27,-0.53 -0.24,-0.55 -0.21,-0.55 -0.2,-0.56 -0.17,-0.56 -0.15,-0.56 -0.12,-0.57 -0.09,-0.57 -0.07,-0.57 -0.04,-0.56 -0.02,-0.57 c 0,-4.78 3.19,-8.37 7.87,-8.37 v 1.1 c -2.74,0 -4.78,2.09 -4.78,5.88 0,3.14 1.84,12.5 8.57,14.29 v 0 c 1.24,-2.29 2.74,-4.98 2.74,-8.56 0,-3.29 -1.9,-11.61 -6.53,-11.61 v -1.1 c 5.83,0 9.97,7.82 9.97,14.7 0,4.53 -2,7.02 -3.69,9.26 -1.79,2.25 -4.73,5.98 -4.73,8.17 0,1.1 0.99,2.29 2.74,2.29 1.49,0 2.49,-0.64 3.54,-1.34 0.99,-0.6 1.99,-1.25 2.73,-1.25 1.25,0 2,1.2 2,2 0,1.09 -0.8,1.24 -2.59,1.64 -2.59,0.55 -3.29,0.55 -4.09,0.55 -3.88,0 -5.68,-2.15 -5.68,-5.13 0,-2.69 1.45,-5.48 2.99,-8.52 z"
           id="path1407"
           inkscape:connector-curvature="0"
           style="fill:#000000;stroke-width:0" /><path
           d="m 496.45,404.72 v 1.25 h -3.88 v 15.56 c 0,0.73 0,0.97 -0.76,0.97 -0.42,0 -0.56,0 -0.91,-0.49 l -11.54,-16.04 v -1.25 h 10.25 l 0.25,1.25 h -9.21 l 9.21,12.76 v -12.76 l -0.25,-1.25 v -2.86 c 0,-1.19 0,-1.61 -2.82,-1.61 h -0.95 V 399 h 10.5 v 1.25 h -0.94 c -2.83,0 -2.83,0.42 -2.83,1.61 v 2.86 z"
           id="path1409"
           inkscape:connector-curvature="0"
           style="fill:#000000;stroke-width:0" /></g>    </g>
    <g
       id="g1519"
       transform="matrix(4.7860282,0,0,4.7860282,1.3354039,184.78539)">
      <g
         word-spacing="normal"
         letter-spacing="normal"
         font-size-adjust="none"
         font-stretch="normal"
         font-weight="normal"
         font-variant="normal"
         font-style="normal"
         stroke-miterlimit="10.433"
         xml:space="preserve"
         transform="matrix(0.01328571,0,0,-0.01328571,-2.3250001,27.824998)"
         id="g1517"
         style="font-style:normal;font-variant:normal;font-weight:normal;font-stretch:normal;letter-spacing:normal;word-spacing:normal;text-anchor:start;fill:none;fill-opacity:1;fill-rule:evenodd;stroke:#000000;stroke-linecap:butt;stroke-linejoin:miter;stroke-miterlimit:10.43299961;stroke-dasharray:none;stroke-dashoffset:0;stroke-opacity:1"><path
           id="path1511"
           d="m 485.25148,408.64027 v 0.0624 l -0.004,0.0579 -0.009,0.0579 -0.009,0.0579 -0.0134,0.0579 -0.0178,0.0535 -0.0178,0.0535 -0.0223,0.0535 -0.0223,0.0535 -0.0267,0.049 -0.0267,0.049 -0.0312,0.049 -0.0356,0.0445 -0.0312,0.0446 -0.0401,0.0446 -0.0401,0.0401 -0.0401,0.0401 -0.0401,0.0356 -0.0446,0.0356 -0.049,0.0356 -0.0446,0.0312 -0.049,0.0267 -0.0535,0.0267 -0.049,0.0223 -0.0535,0.0223 -0.0579,0.0178 -0.0535,0.0178 -0.0579,0.0134 -0.0579,0.009 -0.0579,0.009 -0.0579,0.004 h -0.0579 c -0.64598,0 -1.17612,-0.53014 -1.17612,-1.17611 0,-0.64152 0.53014,-1.17612 1.17612,-1.17612 0.64152,0 1.17166,0.5346 1.17166,1.17612 z"
           inkscape:connector-curvature="0"
           style="fill:#000000;stroke-width:0" /><path
           id="path1513"
           d="m 491.04297,408.64027 v 0.0624 l -0.004,0.0579 -0.009,0.0579 -0.009,0.0579 -0.0134,0.0579 -0.0178,0.0535 -0.0178,0.0535 -0.0223,0.0535 -0.0223,0.0535 -0.0267,0.049 -0.0267,0.049 -0.0312,0.049 -0.0356,0.0445 -0.0312,0.0446 -0.0401,0.0446 -0.0401,0.0401 -0.0401,0.0401 -0.0401,0.0356 -0.0446,0.0356 -0.049,0.0356 -0.0446,0.0312 -0.049,0.0267 -0.0535,0.0267 -0.049,0.0223 -0.0535,0.0223 -0.0579,0.0178 -0.0535,0.0178 -0.0579,0.0134 -0.0579,0.009 -0.0579,0.009 -0.0579,0.004 h -0.0579 c -0.64597,0 -1.17611,-0.53014 -1.17611,-1.17611 0,-0.64152 0.53014,-1.17612 1.17611,-1.17612 0.64152,0 1.17167,0.5346 1.17167,1.17612 z"
           inkscape:connector-curvature="0"
           style="fill:#000000;stroke-width:0" /><path
           id="path1515"
           d="m 497.27995,408.64027 v 0.0624 l -0.004,0.0579 -0.009,0.0579 -0.009,0.0579 -0.0134,0.0579 -0.0178,0.0535 -0.0178,0.0535 -0.0223,0.0535 -0.0223,0.0535 -0.0267,0.049 -0.0267,0.049 -0.0312,0.049 -0.0356,0.0445 -0.0312,0.0446 -0.0401,0.0446 -0.0401,0.0401 -0.0401,0.0401 -0.0401,0.0356 -0.0445,0.0356 -0.049,0.0356 -0.0446,0.0312 -0.049,0.0267 -0.0535,0.0267 -0.049,0.0223 -0.0535,0.0223 -0.0579,0.0178 -0.0535,0.0178 -0.0579,0.0134 -0.0579,0.009 -0.0579,0.009 -0.0579,0.004 h -0.0579 c -0.64597,0 -1.17612,-0.53014 -1.17612,-1.17611 0,-0.64152 0.53015,-1.17612 1.17612,-1.17612 0.64152,0 1.17166,0.5346 1.17166,1.17612 z"
           inkscape:connector-curvature="0"
           style="fill:#000000;stroke-width:0" /></g>    </g>
  </g>
</svg>
